<svg xmlns="http://www.w3.org/2000/svg" viewBox="0 0 280.6 76.5"><style>.a{fill:#0070B9;}.b{fill:#5E6167;}</style><path d="M100.8 74.9h0c-0.7 0-1.2-0.5-1.2-1.2 0-0.2 0.1-0.4 0.2-0.6l8.9-12.5c4.3-6.2 5-6.8 5-13.1l0-43.5c0-1.3 1.1-2.4 2.4-2.4h7.3c1.3 0 2.4 1.1 2.4 2.4v1.7 43.3c0 6.4-2 9.2-6 14.9l-7.5 10.2c-0.4 0.5-1 0.9-1.7 0.9H100.8z" class="a"/><path d="M33.6 28.3c0-0.3 0.3-0.5 0.3-0.5 2.5-1.5 6.2-5.2 6.2-11.4 0-10.1-8.7-14.8-16.7-14.8H3.1c-1.3 0-2.4 1.1-2.4 2.4v49.5c0 1.3 1.1 2.4 2.4 2.4h21.6c8.2 0 17-4.8 17-14.5 0-7.6-5.1-11.3-7.8-12.7C33.9 28.8 33.6 28.6 33.6 28.3zM12.8 11.9c0-0.7 0.5-1.2 1.2-1.2h5c3.2 0 8.6 0.7 8.6 6.4 0 5.5-5.9 6.3-8.3 6.3H14c-0.7 0-1.2-0.5-1.2-1.2V11.9zM23.6 46.6c-1.1 0.2-2.8 0.3-4.1 0.3h-5.6c-0.7 0-1.2-0.5-1.2-1.2V35c0-0.7 0.5-1.2 1.2-1.2h5.9c1.1 0 2.8 0.1 3.8 0.3 1 0.2 5.2 1.2 5.2 6.5C28.9 44.9 24.7 46.4 23.6 46.6z" class="a"/><path d="M86.5 23.7c0.1-0.2 0.3-0.3 0.5-0.3 0.3 0 0.6 0.3 0.6 0.6l0 29.6c0 1.3 1.1 2.4 2.4 2.4h7.2c1.3 0 2.4-1.1 2.4-2.4V4c0-1.3-1.1-2.4-2.4-2.4h-7.7c-0.8 0-1.6 0.4-2 1.1L75.3 19.7c-0.1 0.1-0.3 0.2-0.5 0.2 -0.2 0-0.4-0.1-0.5-0.2L62.3 2.7C61.8 2 61.1 1.6 60.2 1.6h-7.5c-1.5 0-2.6 1-2.6 2.5v49.5c0 1.3 1.1 2.4 2.4 2.4h7.2c1.3 0 2.4-1.1 2.4-2.4l0-29.6c0-0.3 0.3-0.6 0.6-0.6 0.2 0 0.4 0.1 0.5 0.3l8.9 12.6c0.4 0.6 1.1 1 1.9 1h1.4c0.8 0 1.5-0.4 1.9-1L86.5 23.7z" class="a"/><path d="M139.6 33.2c1.7-0.3 3-0.8 3.9-1.5 0.9-0.7 1.4-1.8 1.4-3.1V1.7h3.4v26.8c0 2.4-0.7 4.1-2.2 5.4 -1.5 1.2-3.4 2-5.9 2.3L139.6 33.2z" class="b"/><path d="M158.2 29.9c-1.2-0.6-2.2-1.5-3-2.5 -0.8-1-1.4-2.2-1.8-3.5 -0.4-1.3-0.6-2.6-0.6-4 0-1.3 0.2-2.7 0.6-3.9 0.4-1.3 1-2.4 1.8-3.4 0.8-1 1.8-1.8 3-2.4 1.2-0.6 2.6-0.9 4.2-0.9 1.6 0 3 0.3 4.2 0.9 1.2 0.6 2.2 1.4 3 2.4 0.8 1 1.4 2.1 1.8 3.4 0.4 1.3 0.6 2.6 0.6 4 0 1.3-0.2 2.7-0.6 4 -0.4 1.3-1 2.4-1.8 3.4 -0.8 1-1.8 1.8-3 2.4 -1.2 0.6-2.6 0.9-4.2 0.9C160.8 30.8 159.4 30.5 158.2 29.9zM157.7 25.6c0.5 0.7 1.2 1.4 2 1.8 0.8 0.5 1.7 0.7 2.7 0.7 1.1 0 2-0.2 2.8-0.7 0.8-0.5 1.4-1.1 2-1.8 0.5-0.8 0.9-1.6 1.2-2.6s0.4-2 0.4-3c0-1-0.1-2-0.4-3 -0.3-1-0.7-1.8-1.2-2.6 -0.5-0.8-1.2-1.4-2-1.8 -0.8-0.5-1.7-0.7-2.8-0.7 -1.1 0-2 0.2-2.8 0.7 -0.8 0.5-1.4 1.1-2 1.8 -0.5 0.8-0.9 1.6-1.2 2.6 -0.3 1-0.4 1.9-0.4 2.9 0 1 0.1 2 0.4 3C156.8 24 157.1 24.8 157.7 25.6z" class="b"/><path d="M179.8 23c0 1.8 0.4 3.1 1.2 3.9 0.8 0.8 2.1 1.2 3.7 1.2 1.1 0 2.1-0.2 3.2-0.7 1-0.4 1.9-1 2.6-1.6V9.8h3.4v20.5h-3.1l-0.2-1.6c-0.8 0.6-1.7 1.1-2.7 1.5 -1 0.4-2.2 0.6-3.7 0.6 -2.7 0-4.7-0.7-5.9-2s-1.8-3.3-1.8-6V9.8h3.3V23z" class="b"/><path d="M199.6 30.3V9.8h3l0.3 1.8c0.5-0.6 1.2-1.1 2.1-1.6 0.9-0.5 1.7-0.7 2.6-0.7 0.6 0 1.2 0 1.7 0.1 0.5 0.1 0.9 0.2 1.2 0.3l-0.6 3.1c-0.7-0.3-1.6-0.5-2.7-0.5 -0.8 0-1.6 0.2-2.4 0.7 -0.8 0.5-1.4 0.9-2 1.4v16H199.6z" class="b"/><path d="M213.2 30.3V9.8h3.1l0.2 1.6c0.8-0.6 1.8-1.1 2.9-1.5 1.1-0.4 2.3-0.6 3.5-0.6 2.8 0 4.8 0.7 6 2.1s1.7 3.4 1.7 6.2v12.8h-3.3V17.5c0-1.7-0.4-3.1-1.2-4 -0.8-1-2-1.5-3.8-1.5 -1.1 0-2.2 0.2-3.2 0.7 -1 0.5-1.9 1-2.7 1.6v16.1H213.2z" class="b"/><path d="M247.7 30.3l-0.2-1.8c-0.7 0.7-1.5 1.3-2.5 1.7 -0.9 0.4-2 0.6-3.1 0.6 -0.9 0-1.8-0.1-2.6-0.4s-1.6-0.7-2.2-1.2c-0.6-0.5-1.2-1.2-1.6-2 -0.4-0.8-0.6-1.7-0.6-2.8 0-1.5 0.4-2.7 1.2-3.6 0.8-0.9 1.8-1.7 3-2.3 1.2-0.6 2.5-1 4-1.2 1.5-0.2 2.9-0.3 4.3-0.3v-0.3c0-1.7-0.4-3-1.1-3.7 -0.7-0.7-1.8-1.1-3.2-1.1 -0.9 0-1.8 0.2-2.6 0.6 -0.8 0.4-1.5 1-2 1.7l-2.3-1.6c0.8-1.1 1.8-1.9 2.9-2.5s2.6-0.8 4.3-0.8c2.3 0 4.1 0.6 5.4 1.8 1.3 1.2 1.9 3.1 1.9 5.9v13.4H247.7zM247.4 19.6c-0.9 0-1.9 0.1-3 0.2 -1.1 0.1-2 0.3-2.9 0.7s-1.6 0.8-2.2 1.4 -0.9 1.5-0.9 2.5c0 0.7 0.1 1.2 0.4 1.7 0.3 0.5 0.6 0.8 1 1.1 0.4 0.3 0.8 0.5 1.3 0.6 0.5 0.1 0.9 0.2 1.4 0.2 1 0 1.9-0.2 2.8-0.6 0.8-0.4 1.6-0.9 2.3-1.5V19.6z" class="b"/><path d="M256.3 30.3V1.7h3.3v28.7H256.3z" class="b"/><path d="M266.4 25.3c0.5 0.9 1.1 1.6 1.9 2.1 0.8 0.5 1.8 0.8 3.1 0.8 2.8 0 4.2-1 4.2-3 0-0.6-0.1-1.1-0.3-1.5 -0.2-0.4-0.5-0.8-0.9-1.1 -0.4-0.3-1-0.6-1.6-0.9 -0.7-0.3-1.5-0.6-2.4-1 -1-0.3-1.9-0.7-2.6-1.1 -0.7-0.4-1.3-0.8-1.8-1.3 -0.5-0.5-0.8-1-1-1.5s-0.3-1.2-0.3-2c0-1.7 0.6-3 1.8-3.9 1.2-0.9 2.8-1.4 4.8-1.4 1.7 0 3.1 0.3 4.2 0.8s2.1 1.4 2.8 2.4l-2.3 1.8c-0.6-0.7-1.2-1.3-2-1.7 -0.8-0.5-1.6-0.7-2.6-0.7 -1.2 0-2.1 0.2-2.7 0.7 -0.6 0.5-0.9 1.1-0.9 1.7 0 0.4 0.1 0.8 0.2 1.1 0.2 0.3 0.4 0.6 0.8 0.9 0.4 0.3 0.9 0.5 1.6 0.8 0.6 0.3 1.5 0.6 2.5 0.9 1.9 0.7 3.3 1.5 4.3 2.5 1 1 1.5 2.3 1.5 4 0 1-0.2 1.8-0.6 2.6 -0.4 0.8-0.9 1.4-1.5 1.9 -0.6 0.5-1.4 0.9-2.3 1.2 -0.9 0.3-1.9 0.4-2.9 0.4 -2 0-3.6-0.4-4.8-1.1s-2.1-1.7-2.8-2.8L266.4 25.3z" class="b"/></svg>
